<svg width="50" height="49" viewBox="0 0 50 49" fill="none" xmlns="http://www.w3.org/2000/svg">
<path d="M22.1937 0.174923C10.6703 1.43854 1.40154 10.7893 0.149006 22.1618C-1.10353 34.0398 5.66017 44.6541 15.931 48.6977C16.6825 48.9504 17.434 48.445 17.434 47.4341V43.3905C17.434 43.3905 16.432 43.6433 15.1795 43.6433C11.6724 43.6433 10.1693 40.6106 9.9188 38.8415C9.66829 37.8306 9.16728 37.0725 8.41575 36.3143C7.66423 36.0616 7.41372 36.0616 7.41372 35.8088C7.41372 35.3034 8.16525 35.3034 8.41575 35.3034C9.9188 35.3034 11.1713 37.0725 11.6724 37.8306C12.9249 39.8524 14.4279 40.3579 15.1795 40.3579C16.1815 40.3579 16.933 40.1051 17.434 39.8524C17.6845 38.0833 18.4361 36.3143 19.9391 35.3034C14.1774 34.0398 9.9188 30.7544 9.9188 25.1945C9.9188 22.4145 11.1713 19.6346 12.9249 17.6128C12.6744 17.1074 12.4239 15.8437 12.4239 14.0747C12.4239 13.0638 12.4239 11.5475 13.1754 10.0311C13.1754 10.0311 16.6825 10.0311 20.1896 13.3165C21.4421 12.8111 23.1957 12.5583 24.9492 12.5583C26.7028 12.5583 28.4564 12.8111 29.9594 13.3165C33.216 10.0311 36.9736 10.0311 36.9736 10.0311C37.4746 11.5475 37.4746 13.0638 37.4746 14.0747C37.4746 16.0965 37.2241 17.1074 36.9736 17.6128C38.7272 19.6346 39.9797 22.1618 39.9797 25.1945C39.9797 30.7544 35.7211 34.0398 29.9594 35.3034C31.4624 36.567 32.4645 38.8415 32.4645 41.116V47.6868C32.4645 48.445 33.216 49.2032 34.218 48.9504C43.4868 45.1596 50 36.0616 50 25.4472C50 10.2838 37.2241 -1.59414 22.1937 0.174923Z" fill="black"/>
</svg>
