<svg width="51" height="52" viewBox="0 0 51 52" fill="none" xmlns="http://www.w3.org/2000/svg">
<path d="M25.037 0.963013C11.2103 0.963013 0 12.1733 0 26C0 39.8268 11.2103 51.0371 25.037 51.0371C38.8637 51.0371 50.0741 39.8268 50.0741 26C50.0741 12.1733 38.8637 0.963013 25.037 0.963013ZM15.6398 12.2359C17.3966 12.2359 18.567 13.4064 18.567 14.9671C18.567 16.5277 17.3966 17.6982 15.4458 17.6982C13.689 17.7003 12.5185 16.5277 12.5185 14.9671C12.5185 13.4064 13.689 12.2359 15.6398 12.2359ZM18.7778 36.4321H12.5185V19.7408H18.7778V36.4321ZM39.642 36.4321H33.7499V27.3103C33.7499 24.7878 32.1789 24.2057 31.5905 24.2057C31.0021 24.2057 29.0367 24.5938 29.0367 27.3103C29.0367 27.6984 29.0367 36.4321 29.0367 36.4321H22.9506V19.7408H29.0388V22.0692C29.8233 20.711 31.3944 19.7408 34.3404 19.7408C37.2864 19.7408 39.642 22.0692 39.642 27.3103V36.4321Z" fill="black"/>
</svg>
